<?xml version="1.0" encoding="utf-8"?>
<!-- Uploaded to: SVG Repo, www.svgrepo.com, Generator: SVG Repo Mixer Tools -->
<svg fill="#000000" version="1.1" id="Layer_1" xmlns="http://www.w3.org/2000/svg" xmlns:xlink="http://www.w3.org/1999/xlink" 
	 width="800px" height="800px" viewBox="0 0 260 244" enable-background="new 0 0 260 244" xml:space="preserve">
<path d="M2,2l30.42,219.36C34.06,233.16,44.53,242,56.48,242h146c11.89,0,22.42-8.79,24.11-20.53L258,2H2z M130,196
	c0,3.31-2.69,6-6,6H72c-3.31,0-6-2.69-6-6v-44c0-3.31,2.69-6,6-6h52c3.31,0,6,2.69,6,6V196z M225.68,114H203l4.7,10.51
	c1.27,3.06-0.19,6.57-3.26,7.83c0,0-48.07,19.81-48.07,19.81c-2.516,1.017-6.349,0.225-7.84-3.26L134,114h-27l-20.43,19.93
	c-2.34,2.35-6.14,2.35-8.48,0L58,114H33.67L20.31,18h219.03L225.68,114z M117.684,102.821c2.343-2.343,2.343-6.142,0-8.485
	l-36.77-36.77c-2.343-2.343-6.142-2.343-8.485,0L41.316,88.679c-2.343,2.343-2.343,6.142,0,8.485L58,114h49L117.684,102.821z
	 M190.939,83.824c-1.263-3.064-4.77-4.524-7.834-3.261l-48.077,19.813c-3.064,1.263-4.524,4.77-3.261,7.834L134,114l69,0
	L190.939,83.824z"/>
</svg>